<svg width="41" height="40" viewBox="0 0 41 40" fill="none" xmlns="http://www.w3.org/2000/svg">
<path d="M37.0769 8.62573C33.4796 3.46523 27.4406 0.079834 20.5974 0.079834C9.57108 0.079834 0.632446 8.86933 0.632446 19.7117C0.632446 21.2891 0.821648 22.8231 1.17894 24.2929L11.3459 14.2955C12.3205 13.3372 13.9006 13.3372 14.8752 14.2955L23.0931 22.3762L37.0769 8.62573Z" fill="#EF2A82"/>
<path d="M39.4498 13.2333L24.8577 27.5819C23.8831 28.5403 22.303 28.5403 21.3284 27.5819L13.1106 19.5012L3.16219 29.2836C6.57752 35.2859 13.1056 39.3436 20.5974 39.3436C31.6238 39.3436 40.5624 30.5541 40.5624 19.7117C40.5624 17.4417 40.1706 15.2616 39.4498 13.2333Z" fill="#EF2A82"/>
</svg>
